<?xml version="1.0" encoding="UTF-8"?><svg id="Layer_1" xmlns="http://www.w3.org/2000/svg" viewBox="0 0 190 35"><defs><style>.cls-1{fill:#00e117;}.cls-2{fill:#fff;}</style></defs><g><g><path class="cls-2" d="M34.4,12.97l-6.12,1.64c.55,2.06,.5,4.24-.15,6.28-.68,2.14-1.99,4.02-3.76,5.4-1.77,1.38-3.91,2.2-6.15,2.34-2.24,.15-4.47-.39-6.4-1.53-1.93-1.14-3.48-2.84-4.43-4.87s-1.27-4.3-.92-6.52,1.37-4.27,2.91-5.9c1.42-1.5,3.23-2.58,5.22-3.11L12.97,.6c-3.12,.84-5.95,2.52-8.18,4.87C2.37,8.03,.78,11.25,.22,14.72c-.56,3.47-.06,7.03,1.44,10.22,1.49,3.18,3.91,5.84,6.94,7.63,3.03,1.79,6.53,2.62,10.04,2.39,3.51-.23,6.87-1.51,9.64-3.67,2.77-2.17,4.83-5.12,5.89-8.47,1.02-3.2,1.1-6.62,.23-9.85Z"/><path class="cls-2" d="M9.82,15.35c-.46,1.65-.38,3.4,.23,5,.61,1.6,1.72,2.96,3.17,3.88,1.45,.92,3.15,1.35,4.86,1.22,1.71-.12,3.33-.8,4.63-1.92,1.3-1.12,2.2-2.63,2.57-4.3,.28-1.26,.25-2.57-.08-3.8l-7.7,2.06-2.06-7.7c-1.02,.27-1.98,.75-2.82,1.4-1.35,1.05-2.34,2.51-2.8,4.16Z"/></g><path class="cls-1" d="M16.12,.05l3.63,13.54,13.54-3.63c-.53-1.1-1.17-2.15-1.91-3.12-1.4-1.82-3.14-3.35-5.13-4.5-1.99-1.15-4.19-1.89-6.47-2.19-1.22-.16-2.44-.19-3.66-.1Z"/></g><g><path class="cls-2" d="M81.84,23.29c-.89-.16-2.11-.99-2.11-2.98V0h-5.18V20.64c0,2.64,1.04,4.44,2.2,5.58,1.18,1.12,2.82,1.68,4.91,1.68,1.01,0,1.77,0,2.83-.16l-.23-4.29c-.67,0-1.53,0-2.42-.16Z"/><path class="cls-2" d="M169.27,7.51c-3.66,0-6.27,2.1-6.27,4.19h-.68V0h-5.16V27.9h5.35v-9.28c0-3.73,1.62-6.15,5.68-6.15s4.38,2.13,4.38,5.47v9.95h5.17v-11.36c0-6.99-3.86-9.02-8.46-9.02Z"/><path class="cls-2" d="M124.65,17.03c0,3.73-1.45,5.86-5.51,5.86s-4.72-1.85-4.72-5.19V7.55h-5.17v11.56c0,6.99,4.53,8.79,9.13,8.79,3.66,0,6.49-1.86,6.49-3.96h.68v3.95h4.27V7.55h-5.18v9.48Z"/><path class="cls-2" d="M149.67,12.44h-.68c0-2.1-3.51-4.92-8.01-4.92s-8.83,2.28-8.83,10.13,4.22,10.21,8.83,10.21,8.02-2.85,8.02-4.93h.65v2.21c0,2.72-3.51,5.26-6.62,5.45-3.12,.19-5.63-.29-7.44-1.03l-1.39,3.5c2.19,1.35,3.84,1.92,9.51,1.92s11.12-3.37,11.12-10.37V7.5h-5.16v4.94Zm-5.28,10.48h-2.72c-2.54,0-4.61-2.35-4.61-5.24s2.06-5.24,4.61-5.24h2.72c2.54,0,4.61,2.35,4.61,5.24s-2.06,5.24-4.61,5.24Z"/><path class="cls-2" d="M63.02,7.52c-5.26,0-7.7,2.84-7.7,4.92h-.68V7.62h-5.17v27.38h5.17v-12.1h.68c0,2.63,2.66,5,7.7,5s9.21-2.89,9.21-10.21-3.95-10.17-9.21-10.17Zm-.38,15.4h-2.72c-2.54,0-4.61-2.35-4.61-5.24s2.06-5.24,4.61-5.24h2.72c2.54,0,4.61,2.35,4.61,5.24s-2.06,5.24-4.61,5.24Z"/><path class="cls-2" d="M99.87,7.78c-1.24-.15-2.51-.26-3.6-.26s-2.36,.11-3.6,.26c-3.64,.44-6.58,3.61-6.94,7.75-.07,.77-.11,1.52-.11,2.2s.04,1.43,.11,2.2c.35,4.14,3.3,7.31,6.94,7.75,1.24,.15,2.51,.26,3.6,.26s2.36-.11,3.6-.26c3.64-.44,6.58-3.61,6.94-7.75,.07-.77,.11-1.52,.11-2.2s-.04-1.43-.11-2.2c-.35-4.14-3.3-7.31-6.94-7.75Zm-2.24,15.14h-2.72c-2.54,0-4.61-2.35-4.61-5.24s2.06-5.24,4.61-5.24h2.72c2.54,0,4.61,2.35,4.61,5.24s-2.06,5.24-4.61,5.24Z"/><path class="cls-2" d="M190,12.01V7.89h-4.76V3.33h-5.18V20.64c0,2.64,1.04,4.44,2.2,5.58,1.18,1.12,2.82,1.68,4.91,1.68,1.01,0,1.77,0,2.83-.16l-.23-4.29c-.67,0-1.53,0-2.42-.16-.89-.16-2.11-.99-2.11-2.98V12.01h4.76Z"/></g></svg>